<?xml version="1.0" encoding="utf-8"?>
<!-- Generator: Adobe Illustrator 21.0.0, SVG Export Plug-In . SVG Version: 6.00 Build 0)  -->
<svg version="1.1" id="Layer_1" xmlns="http://www.w3.org/2000/svg" xmlns:xlink="http://www.w3.org/1999/xlink" x="0px" y="0px"
	 viewBox="0 0 512 512" style="enable-background:new 0 0 512 512;" xml:space="preserve">
<g>
	<path d="M510.5,28.1L483.9,1.5c-1-1-2.3-1.4-3.6-1.4c-1.3,0-2.6,0.5-3.6,1.4L429,49.3c-20.8-14.1-45.3-21.6-70.3-21.5
		c-32.1,0-64.3,12.2-88.8,36.8L206,128.5c-1.9,2-1.9,5.1,0,7.1L376.4,306c1,1,2.3,1.4,3.6,1.4c1.3,0,2.6-0.5,3.6-1.4l63.9-63.9
		c43.2-43.3,48.3-110.2,15.2-159.1l47.8-47.8C512.5,33.3,512.5,30.1,510.5,28.1z M297.9,277.8c-2-1.9-5.1-1.9-7.1,0l-41.8,41.8
		l-56.7-56.7l41.9-41.9c1.9-1.9,1.9-5.1,0-7.1l-22.8-22.8c-2-1.9-5.1-1.9-7.1,0L162.5,233l-27-27c-0.9-0.9-2.2-1.5-3.6-1.4
		c-1.3,0-2.6,0.5-3.6,1.4L64.5,270C21.2,313.2,16.1,380.2,49.2,429L1.5,476.8c-1.9,2-1.9,5.1,0,7.1l26.6,26.6c1,1,2.3,1.4,3.6,1.4
		c1.3,0,2.6-0.5,3.6-1.4L83,462.7c21.1,14.4,45.7,21.5,70.3,21.5c32.1,0,64.3-12.2,88.8-36.8l63.9-63.9c1.9-1.9,1.9-5.1,0-7.1
		l-27-27l41.9-41.9c1.9-1.9,1.9-5.1,0-7.1L297.9,277.8z"/>
</g>
</svg>
