<?xml version="1.0" encoding="UTF-8" standalone="no"?>
<svg
   width="512"
   height="512"
   version="1.1"
   xmlns="http://www.w3.org/2000/svg"
   xmlns:svg="http://www.w3.org/2000/svg">
 <g class="layer">
  <title id="title1">Layer 1</title>
  <path
     fill="#fd003a"
     stroke="white"
     stroke-width="5"
     d="M 256,6 C 156.698,6 76,84.808624 76,181.78132 c 0,32.81252 9.302,64.74708 27.001,92.28618 l 140.797,225.01376 c 2.40199,3.80858 6.002,6.15331 10.203,6.73926 5.698,0.87795 12.00101,-1.46485 15.29999,-7.03127 L 410.50097,271.72274 C 427.299,244.77061 435.99999,213.42294 435.99999,181.78132 435.99999,84.808624 355.30199,6 255.99999,6 Z m 0,263.67198 c -50.39799,0 -90,-39.84377 -90,-87.89066 0,-48.34085 40.49899,-87.890661 90,-87.890661 49.50101,0 90,39.549811 90,87.890661 0,47.75391 -39.00101,87.89066 -90,87.89066 z"/>
  <path
     fill="#e50027"
     d="m 256,8 v 87.188332 c 48.951,0 89,39.233778 89,87.188328 0,47.37231 -38.56767,87.18835 -89,87.18835 V 503.996 c 5.06211,0.11529 10.26763,-2.26204 13.15221,-7.1446 L 408.78333,271.59941 C 425.39569,244.86262 434,213.76543 434,182.37668 434,86.178869 354.19864,8 256,8 Z"/>
  <ellipse
     ry="90"
     rx="90.00001"
     cy="180.00001"
     cx="256"
     stroke-width="2"
     stroke="white"
     fill="#ffffff" />
</g>
</svg>
